<svg width="18" height="18" viewBox="0 0 18 18" fill="none" xmlns="http://www.w3.org/2000/svg">
<mask id="mask0_114_646" style="mask-type:alpha" maskUnits="userSpaceOnUse" x="0" y="0" width="18" height="18">
<rect width="18" height="18" fill="#D9D9D9"/>
</mask>
<g mask="url(#mask0_114_646)">
<path d="M9 15.7498L7.9125 14.7748C6.65 13.6373 5.60625 12.6561 4.78125 11.8311C3.95625 11.0061 3.3 10.2654 2.8125 9.60918C2.325 8.95293 1.98438 8.3498 1.79063 7.7998C1.59688 7.2498 1.5 6.6873 1.5 6.1123C1.5 4.9373 1.89375 3.95605 2.68125 3.16855C3.46875 2.38105 4.45 1.9873 5.625 1.9873C6.275 1.9873 6.89375 2.1248 7.48125 2.3998C8.06875 2.6748 8.575 3.0623 9 3.5623C9.425 3.0623 9.93125 2.6748 10.5188 2.3998C11.1063 2.1248 11.725 1.9873 12.375 1.9873C13.55 1.9873 14.5313 2.38105 15.3188 3.16855C16.1063 3.95605 16.5 4.9373 16.5 6.1123C16.5 6.6873 16.4031 7.2498 16.2094 7.7998C16.0156 8.3498 15.675 8.95293 15.1875 9.60918C14.7 10.2654 14.0437 11.0061 13.2188 11.8311C12.3938 12.6561 11.35 13.6373 10.0875 14.7748L9 15.7498Z" fill="#6D6E6F"/>
</g>
</svg>
